<svg width="18" height="20" viewBox="0 0 18 20" fill="none" xmlns="http://www.w3.org/2000/svg">
<path d="M3 0.833313V2.49998H2.16667C1.24167 2.49998 0.5 3.24165 0.5 4.16665V15.8333C0.5 16.75 1.24167 17.5 2.16667 17.5H7.25C8.3 18.5333 9.74167 19.1666 11.3333 19.1666C14.5583 19.1666 17.1667 16.5583 17.1667 13.3333C17.1667 11.7416 16.5333 10.3 15.5 9.24998V4.16665C15.5 3.24998 14.7583 2.49998 13.8333 2.49998H13V0.833313H11.3333V2.49998H4.66667V0.833313H3ZM2.16667 4.16665H13.8333V5.83331H2.16667V4.16665ZM2.16667 7.49998H13.8333V8.05831C13.075 7.69998 12.225 7.49998 11.3333 7.49998C8.10833 7.49998 5.5 10.1083 5.5 13.3333C5.5 14.225 5.7 15.075 6.05833 15.8333H2.16667V7.49998ZM11.3333 9.29165C13.5667 9.29165 15.375 11.1 15.375 13.3333C15.375 15.5666 13.5667 17.375 11.3333 17.375C9.1 17.375 7.29167 15.5666 7.29167 13.3333C7.29167 11.1 9.1 9.29165 11.3333 9.29165ZM10.5 10.8333V13.9083L13.1583 15.4416L13.7833 14.3583L11.75 13.1833V10.8333H10.5Z" fill="#8C9697"/>
</svg>
