<svg width="18" height="18" viewBox="0 0 18 18" fill="none" xmlns="http://www.w3.org/2000/svg">
<path d="M8.16699 4.83335V9.83335L12.5003 12.4167L13.167 11.4167L9.41699 9.16669V4.83335H8.16699ZM15.667 9.00002V14H17.3337V9.00002H15.667ZM15.667 15.6667V17.3334H17.3337V15.6667H15.667ZM14.0003 15.6667C12.5837 16.75 10.917 17.3334 9.00033 17.3334C4.41699 17.3334 0.666992 13.5834 0.666992 9.00002C0.666992 4.41669 4.41699 0.666687 9.00033 0.666687C13.0003 0.666687 16.417 3.50002 17.167 7.33335H15.417C14.667 4.50002 12.0837 2.33335 9.00033 2.33335C5.33366 2.33335 2.33366 5.33335 2.33366 9.00002C2.33366 12.6667 5.33366 15.6667 9.00033 15.6667C11.0003 15.6667 12.7503 14.75 14.0003 13.4167V15.6667Z" fill="#8C9697"/>
</svg>
