<svg width="20" height="17" viewBox="0 0 20 17" fill="none" xmlns="http://www.w3.org/2000/svg">
<path d="M13.333 8.66665H14.583V11.0166L16.6163 12.1916L15.9913 13.275L13.333 11.7416V8.66665ZM14.1663 6.99998C13.0613 6.99998 12.0015 7.43897 11.2201 8.22037C10.4387 9.00177 9.99967 10.0616 9.99967 11.1666C9.99967 12.2717 10.4387 13.3315 11.2201 14.1129C12.0015 14.8943 13.0613 15.3333 14.1663 15.3333C15.2714 15.3333 16.3312 14.8943 17.1126 14.1129C17.894 13.3315 18.333 12.2717 18.333 11.1666C18.333 10.0616 17.894 9.00177 17.1126 8.22037C16.3312 7.43897 15.2714 6.99998 14.1663 6.99998ZM14.1663 5.33331C15.7134 5.33331 17.1972 5.94789 18.2911 7.04186C19.3851 8.13582 19.9997 9.61955 19.9997 11.1666C19.9997 12.7137 19.3851 14.1975 18.2911 15.2914C17.1972 16.3854 15.7134 17 14.1663 17C11.8413 17 9.83301 15.6333 8.89134 13.6666H0.833008V11.1666C0.833008 8.94998 5.27467 7.83331 7.49967 7.83331C7.99967 7.83331 8.61634 7.89165 9.26634 7.99998C10.2997 6.39998 12.108 5.33331 14.1663 5.33331ZM8.33301 11.1666C8.33301 10.5833 8.41634 10.0166 8.57467 9.49998C8.22467 9.44165 7.85801 9.41665 7.49967 9.41665C5.02467 9.41665 2.41634 10.6333 2.41634 11.1666V12.0833H8.40801C8.35801 11.7833 8.33301 11.475 8.33301 11.1666ZM7.49967 0.333313C8.38373 0.333313 9.23158 0.684502 9.8567 1.30962C10.4818 1.93474 10.833 2.78259 10.833 3.66665C10.833 4.5507 10.4818 5.39855 9.8567 6.02367C9.23158 6.64879 8.38373 6.99998 7.49967 6.99998C6.61562 6.99998 5.76777 6.64879 5.14265 6.02367C4.51753 5.39855 4.16634 4.5507 4.16634 3.66665C4.16634 2.78259 4.51753 1.93474 5.14265 1.30962C5.76777 0.684502 6.61562 0.333313 7.49967 0.333313ZM7.49967 1.91665C7.03555 1.91665 6.59043 2.10102 6.26224 2.42921C5.93405 2.7574 5.74967 3.20252 5.74967 3.66665C5.74967 4.13077 5.93405 4.57589 6.26224 4.90408C6.59043 5.23227 7.03555 5.41665 7.49967 5.41665C7.9638 5.41665 8.40892 5.23227 8.73711 4.90408C9.0653 4.57589 9.24967 4.13077 9.24967 3.66665C9.24967 3.20252 9.0653 2.7574 8.73711 2.42921C8.40892 2.10102 7.9638 1.91665 7.49967 1.91665Z" fill="#8C9697"/>
</svg>
