<svg width="17" height="16" viewBox="0 0 17 16" fill="none" xmlns="http://www.w3.org/2000/svg">
<path d="M12.1667 9.16667H13.8333V11.6667H16.3333V13.3333H13.8333V15.8333H12.1667V13.3333H9.66667V11.6667H12.1667V9.16667ZM2.16667 0H13.8333C14.7583 0 15.5 0.741667 15.5 1.66667V8.16667C14.9917 7.875 14.4333 7.66667 13.8333 7.56667V1.66667H2.16667V13.3333H8.06667C8.16667 13.9333 8.375 14.4917 8.66667 15H2.16667C1.24167 15 0.5 14.2583 0.5 13.3333V1.66667C0.5 0.741667 1.24167 0 2.16667 0ZM3.83333 3.33333H12.1667V5H3.83333V3.33333ZM3.83333 6.66667H12.1667V7.56667C11.4583 7.68333 10.8083 7.95 10.2333 8.33333H3.83333V6.66667ZM3.83333 10H8V11.6667H3.83333V10Z" fill="#3D8A94"/>
</svg>
