<svg width="16" height="13" viewBox="0 0 16 13" fill="none" xmlns="http://www.w3.org/2000/svg">
<path d="M14.6667 0.5H1.33333C0.606667 0.526667 0.0266667 1.10667 0 1.83333V11.1667C0.0266667 11.8933 0.606667 12.4733 1.33333 12.5H14.6667C15.3933 12.4733 15.9733 11.8933 16 11.1667V1.83333C15.9733 1.10667 15.3933 0.526667 14.6667 0.5ZM14.6667 11.1667H1.33333V1.83333H14.6667V11.1667ZM9.33333 9.83333V9C9.33333 7.89333 7.10667 7.33333 6 7.33333C4.89333 7.33333 2.66667 7.89333 2.66667 9V9.83333H9.33333ZM6 3.16667C5.55797 3.16667 5.13405 3.34226 4.82149 3.65482C4.50893 3.96738 4.33333 4.39131 4.33333 4.83333C4.33333 5.0522 4.37644 5.26893 4.4602 5.47114C4.54396 5.67335 4.66672 5.85708 4.82149 6.01184C5.13405 6.32441 5.55797 6.5 6 6.5C6.21887 6.5 6.4356 6.45689 6.63781 6.37313C6.84002 6.28937 7.02375 6.16661 7.17851 6.01184C7.33328 5.85708 7.45604 5.67335 7.5398 5.47114C7.62356 5.26893 7.66667 5.0522 7.66667 4.83333C7.66667 4.61446 7.62356 4.39774 7.5398 4.19553C7.45604 3.99332 7.33328 3.80959 7.17851 3.65482C7.02375 3.50006 6.84002 3.37729 6.63781 3.29353C6.4356 3.20978 6.21887 3.16667 6 3.16667ZM9.33333 3.16667V3.83333H13.3333V3.16667H9.33333ZM9.33333 4.5V5.16667H13.3333V4.5H9.33333ZM9.33333 5.83333V6.5H12V5.83333H9.33333Z" fill="#5B5B5B"/>
</svg>
