<svg width="14" height="19" viewBox="0 0 14 19" fill="none" xmlns="http://www.w3.org/2000/svg">
<path d="M4.4996 7.33334C4.50823 6.67298 4.7744 6.0421 5.24138 5.57512C5.70836 5.10814 6.33924 4.84197 6.9996 4.83334C7.65996 4.84197 8.29084 5.10814 8.75782 5.57512C9.2248 6.0421 9.49097 6.67298 9.4996 7.33334C9.49097 7.9937 9.2248 8.62458 8.75782 9.09156C8.29084 9.55854 7.65996 9.82471 6.9996 9.83334C6.33924 9.82471 5.70836 9.55854 5.24138 9.09156C4.7744 8.62458 4.50823 7.9937 4.4996 7.33334ZM6.9996 14.8333L10.3329 15.6667V13.1C9.32766 13.7054 8.17295 14.0172 6.9996 14C5.82625 14.0172 4.67154 13.7054 3.66627 13.1V15.6667L6.9996 14.8333ZM6.9996 2.33334C6.34291 2.32136 5.6907 2.44381 5.08307 2.69316C4.47545 2.94252 3.92524 3.31351 3.46627 3.78334C2.99136 4.24281 2.61608 4.79509 2.36376 5.40582C2.11144 6.01654 1.98748 6.67265 1.9996 7.33334C1.99092 7.98984 2.11654 8.64118 2.36876 9.24736C2.62098 9.85354 2.99446 10.4018 3.46627 10.8583C3.9231 11.3327 4.47235 11.7083 5.08007 11.962C5.6878 12.2157 6.3411 12.3421 6.9996 12.3333C7.6581 12.3421 8.3114 12.2157 8.91913 11.962C9.52685 11.7083 10.0761 11.3327 10.5329 10.8583C11.0047 10.4018 11.3782 9.85354 11.6304 9.24736C11.8827 8.64118 12.0083 7.98984 11.9996 7.33334C12.0117 6.67265 11.8878 6.01654 11.6354 5.40582C11.3831 4.79509 11.0078 4.24281 10.5329 3.78334C10.074 3.31351 9.52375 2.94252 8.91613 2.69316C8.3085 2.44381 7.65629 2.32136 6.9996 2.33334ZM13.6663 7.33334C13.6485 8.13324 13.4877 8.9235 13.1913 9.66667C12.9242 10.4229 12.5203 11.1234 11.9996 11.7333V18.1667L6.9996 16.5L1.9996 18.1667V11.7333C0.921008 10.5221 0.327518 8.95524 0.332934 7.33334C0.318246 6.45883 0.482964 5.59058 0.816919 4.78221C1.15087 3.97384 1.64698 3.2425 2.2746 2.63334C2.88602 2.00009 3.62074 1.49887 4.4334 1.16061C5.24607 0.822361 6.11944 0.654255 6.9996 0.666672C7.87976 0.654255 8.75313 0.822361 9.5658 1.16061C10.3785 1.49887 11.1132 2.00009 11.7246 2.63334C12.3522 3.2425 12.8483 3.97384 13.1823 4.78221C13.5162 5.59058 13.681 6.45883 13.6663 7.33334Z" fill="#3D8A94"/>
</svg>
