<svg width="16" height="16" viewBox="0 0 16 16" fill="none" xmlns="http://www.w3.org/2000/svg">
<path d="M15.5 3.83333V0.5H12.1667V1.33333H3.83333V0.5H0.5V3.83333H1.33333V12.1667H0.5V15.5H3.83333V14.6667H12.1667V15.5H15.5V12.1667H14.6667V3.83333H15.5ZM13 1.33333H14.6667V3H13V1.33333ZM1.33333 1.33333H3V3H1.33333V1.33333ZM3 14.6667H1.33333V13H3V14.6667ZM14.6667 14.6667H13V13H14.6667V14.6667ZM13 12.1667H12.1667V13H3.83333V12.1667H3V3.83333H3.83333V3H12.1667V3.83333H13V12.1667ZM11.3333 4.66667V6.33333H8.83333V11.3333H7.16667V6.33333H4.66667V4.66667H11.3333Z" fill="white"/>
</svg>
