<svg width="14" height="18" viewBox="0 0 14 18" fill="none" xmlns="http://www.w3.org/2000/svg">
<path d="M2.00065 0.666656C1.55862 0.666656 1.1347 0.842251 0.82214 1.15481C0.509579 1.46737 0.333984 1.8913 0.333984 2.33332V15.6667C0.333984 16.1087 0.509579 16.5326 0.82214 16.8452C1.1347 17.1577 1.55862 17.3333 2.00065 17.3333H12.0007C12.4427 17.3333 12.8666 17.1577 13.1792 16.8452C13.4917 16.5326 13.6673 16.1087 13.6673 15.6667V5.66666L8.66732 0.666656H2.00065ZM2.00065 2.33332H7.83398V6.49999H12.0007V15.6667H2.00065V2.33332ZM3.66732 8.99999V10.6667H10.334V8.99999H3.66732ZM3.66732 12.3333V14H7.83398V12.3333H3.66732Z" fill="#3D8A94"/>
</svg>
