<svg width="14" height="15" viewBox="0 0 14 15" fill="none" xmlns="http://www.w3.org/2000/svg">
<path d="M11.332 0.833313H2.66536C1.3987 0.833313 0.332031 1.89998 0.332031 3.16665V11.8333C0.332031 13.1 1.3987 14.1666 2.66536 14.1666H9.66537L13.6654 10.1666V3.16665C13.6654 1.89998 12.5987 0.833313 11.332 0.833313ZM12.332 9.49998H11.332C10.0654 9.49998 8.9987 10.5666 8.9987 11.8333V12.8333H2.86536C2.1987 12.8333 1.66536 12.3 1.66536 11.6333V3.36665C1.66536 2.69998 2.1987 2.16665 2.86536 2.16665H11.1987C11.8654 2.16665 12.3987 2.69998 12.3987 3.36665V9.49998H12.332ZM9.13203 4.96665L10.132 5.96665L6.13203 9.96665L3.7987 7.63331L4.7987 6.63331L6.13203 7.96665L9.13203 4.96665Z" fill="#5B5B5B"/>
</svg>
