<svg width="16" height="16" viewBox="0 0 16 16" fill="none" xmlns="http://www.w3.org/2000/svg">
<path d="M10.0003 15.3334H8.66699V14H10.0003V15.3334ZM12.667 14H11.3337V15.3334H12.667V14ZM10.0003 11.3334H8.66699V12.6667H10.0003V11.3334ZM4.66699 14H3.33366V15.3334H4.66699V14ZM4.66699 11.3334H3.33366V12.6667H4.66699V11.3334ZM12.667 11.3334H11.3337V12.6667H12.667V11.3334ZM10.0003 8.66669H8.66699V10H10.0003V8.66669ZM12.667 8.66669H11.3337V10H12.667V8.66669ZM14.0003 6.00002C14.3539 6.00002 14.6931 6.1405 14.9431 6.39054C15.1932 6.64059 15.3337 6.97973 15.3337 7.33335V15.3334H14.0003V7.33335H7.33366V15.3334H6.00033V10H2.00033V15.3334H0.666992V10C0.666992 9.6464 0.807468 9.30726 1.05752 9.05721C1.30756 8.80716 1.6467 8.66669 2.00033 8.66669H6.00033V7.33335C6.00033 6.97973 6.1408 6.64059 6.39085 6.39054C6.6409 6.1405 6.98004 6.00002 7.33366 6.00002V4.66669C7.33366 4.31306 7.47413 3.97393 7.72418 3.72388C7.97423 3.47383 8.31337 3.33335 8.66699 3.33335H10.0003V0.666687H11.3337V3.33335H12.667C13.0206 3.33335 13.3598 3.47383 13.6098 3.72388C13.8598 3.97393 14.0003 4.31306 14.0003 4.66669V6.00002ZM12.667 6.00002V4.66669H8.66699V6.00002H12.667Z" fill="#5B5B5B"/>
</svg>
