<svg width="14" height="12" viewBox="0 0 14 12" fill="none" xmlns="http://www.w3.org/2000/svg">
<path d="M10.9997 8H9.66634V9.33333H10.9997V8ZM10.9997 5.33333H9.66634V6.66667H10.9997V5.33333ZM12.333 10.6667H6.99967V9.33333H8.33301V8H6.99967V6.66667H8.33301V5.33333H6.99967V4H12.333V10.6667ZM5.66634 2.66667H4.33301V1.33333H5.66634V2.66667ZM5.66634 5.33333H4.33301V4H5.66634V5.33333ZM5.66634 8H4.33301V6.66667H5.66634V8ZM5.66634 10.6667H4.33301V9.33333H5.66634V10.6667ZM2.99967 2.66667H1.66634V1.33333H2.99967V2.66667ZM2.99967 5.33333H1.66634V4H2.99967V5.33333ZM2.99967 8H1.66634V6.66667H2.99967V8ZM2.99967 10.6667H1.66634V9.33333H2.99967V10.6667ZM6.99967 2.66667V0H0.333008V12H13.6663V2.66667H6.99967Z" fill="#5B5B5B"/>
</svg>
