<svg width="46" height="56" viewBox="0 0 46 56" fill="none" xmlns="http://www.w3.org/2000/svg">
<path d="M7.65264 17.7431H28.6714C28.9284 17.7431 29.1749 17.6411 29.3566 17.4593C29.5384 17.2776 29.6405 17.0311 29.6405 16.7741C29.6405 16.5171 29.5384 16.2706 29.3566 16.0889C29.1749 15.9071 28.9284 15.8051 28.6714 15.8051H7.65264C7.39563 15.8051 7.14915 15.9071 6.96742 16.0889C6.78569 16.2706 6.68359 16.5171 6.68359 16.7741C6.68359 17.0311 6.78569 17.2776 6.96742 17.4593C7.14915 17.6411 7.39563 17.7431 7.65264 17.7431Z" fill="#FF4E4E"/>
<path d="M7.65224 22.2608H28.671C28.9099 22.2325 29.1302 22.1175 29.29 21.9377C29.4498 21.7578 29.5381 21.5256 29.5381 21.285C29.5381 21.0443 29.4498 20.8121 29.29 20.6322C29.1302 20.4524 28.9099 20.3374 28.671 20.3091H7.65224C7.4133 20.3374 7.19306 20.4524 7.03324 20.6322C6.87343 20.8121 6.78516 21.0443 6.78516 21.285C6.78516 21.5256 6.87343 21.7578 7.03324 21.9377C7.19306 22.1175 7.4133 22.2325 7.65224 22.2608Z" fill="#FF4E4E"/>
<path d="M29.6405 25.8094C29.6405 25.6821 29.6154 25.5561 29.5667 25.4385C29.518 25.321 29.4466 25.2141 29.3566 25.1242C29.2666 25.0342 29.1598 24.9628 29.0422 24.9141C28.9247 24.8654 28.7987 24.8403 28.6714 24.8403H7.65264C7.39563 24.8403 7.14915 24.9424 6.96742 25.1242C6.78569 25.3059 6.68359 25.5524 6.68359 25.8094C6.68359 26.0664 6.78569 26.3129 6.96742 26.4946C7.14915 26.6763 7.39563 26.7784 7.65264 26.7784H28.6714C28.9284 26.7784 29.1749 26.6763 29.3566 26.4946C29.5384 26.3129 29.6405 26.0664 29.6405 25.8094Z" fill="#FF4E4E"/>
<path d="M16.2508 29.358H7.65224C7.4133 29.3863 7.19306 29.5013 7.03324 29.6812C6.87343 29.861 6.78516 30.0933 6.78516 30.3339C6.78516 30.5745 6.87343 30.8068 7.03324 30.9866C7.19306 31.1665 7.4133 31.2815 7.65224 31.3098H16.2508C16.4898 31.2815 16.71 31.1665 16.8698 30.9866C17.0296 30.8068 17.1179 30.5745 17.1179 30.3339C17.1179 30.0933 17.0296 29.861 16.8698 29.6812C16.71 29.5013 16.4898 29.3863 16.2508 29.358Z" fill="#FF4E4E"/>
<path d="M31.8248 47.5106V42.87C31.8248 42.613 31.7227 42.3666 31.541 42.1848C31.3593 42.0031 31.1128 41.901 30.8558 41.901C30.5988 41.901 30.3523 42.0031 30.1705 42.1848C29.9888 42.3666 29.8867 42.613 29.8867 42.87V47.5106C29.8867 47.7676 29.9888 48.014 30.1705 48.1958C30.3523 48.3775 30.5988 48.4796 30.8558 48.4796C31.1128 48.4796 31.3593 48.3775 31.541 48.1958C31.7227 48.014 31.8248 47.7676 31.8248 47.5106Z" fill="#FF4E4E"/>
<path d="M37.0785 30.7093C36.6064 30.5244 36.1232 30.3694 35.6317 30.2452V10.291C35.616 10.0402 35.5034 9.80533 35.3178 9.63592L26.0505 0.286662C25.864 0.104993 25.6147 0.00231413 25.3544 4.21296e-05H2.92981C2.63536 -0.00176993 2.34348 0.0548899 2.07109 0.166736C1.7987 0.278583 1.55122 0.443391 1.34301 0.651604C1.1348 0.859817 0.969989 1.10729 0.858143 1.37968C0.746296 1.65207 0.689636 1.94395 0.691448 2.2384V45.0403C0.689636 45.3347 0.746296 45.6266 0.858143 45.899C0.969989 46.1714 1.1348 46.4188 1.34301 46.6271C1.55122 46.8353 1.7987 47.0001 2.07109 47.1119C2.34348 47.2238 2.63536 47.2804 2.92981 47.2786H19.7994C20.5359 49.3396 21.7765 51.1835 23.408 52.6423C25.0396 54.1011 27.0102 55.1285 29.1404 55.6308C31.2706 56.1331 33.4927 56.0943 35.6041 55.5181C37.7155 54.9419 39.6491 53.8464 41.2288 52.3316C42.8085 50.8168 43.984 48.9308 44.6482 46.8454C45.3125 44.76 45.4443 42.5416 45.0318 40.3922C44.6192 38.2428 43.6753 36.2308 42.2862 34.5396C40.897 32.8483 39.1068 31.5316 37.0785 30.7093ZM26.2825 3.28934L32.3151 9.3493H26.2825V3.28934ZM19.3217 45.3405H2.94346C2.90289 45.3424 2.86238 45.336 2.82436 45.3217C2.78634 45.3074 2.7516 45.2856 2.72226 45.2576C2.69291 45.2295 2.66957 45.1958 2.65363 45.1584C2.6377 45.1211 2.6295 45.0809 2.62954 45.0403V2.2384C2.62954 2.15877 2.66118 2.08239 2.71749 2.02608C2.7738 1.96977 2.85017 1.93814 2.92981 1.93814H24.3444V10.3183C24.3426 10.4467 24.3663 10.5742 24.4142 10.6934C24.4621 10.8125 24.5332 10.921 24.6233 11.0124C24.7135 11.1038 24.8209 11.1764 24.9394 11.226C25.0579 11.2755 25.185 11.3011 25.3134 11.301H33.68V29.8631C33.186 29.8062 32.6895 29.7743 32.1923 29.7675C28.9957 29.7721 25.9102 30.9414 23.5135 33.0567C21.1169 35.172 19.5732 38.0883 19.1716 41.2596C19.1122 41.799 19.0803 42.3411 19.076 42.8838C19.078 43.7087 19.1603 44.5315 19.3217 45.3405ZM32.1923 54.062C29.2299 54.0547 26.3909 52.8747 24.2961 50.78C22.2014 48.6852 21.0213 45.8462 21.0141 42.8838C21.0198 42.4274 21.0517 41.9717 21.1097 41.5189C21.4518 38.8205 22.766 36.3395 24.8061 34.5405C26.8462 32.7416 29.4723 31.7482 32.1923 31.7466C32.8787 31.744 33.5639 31.8034 34.2396 31.924C34.3686 31.9968 34.5145 32.0345 34.6627 32.0332C37.3442 32.6373 39.7086 34.2094 41.3031 36.4483C42.8976 38.6873 43.6101 41.4358 43.3042 44.1675C42.9982 46.8991 41.6953 49.4219 39.645 51.2526C37.5947 53.0833 34.941 54.0934 32.1923 54.0892V54.062Z" fill="#FF4E4E"/>
<path d="M38.0467 37.3425H35.781V35.7183C35.781 35.4613 35.6789 35.2148 35.4972 35.0331C35.3155 34.8513 35.069 34.7492 34.812 34.7492H29.5846C29.4562 34.7474 29.3287 34.7712 29.2096 34.8191C29.0904 34.8669 28.982 34.938 28.8905 35.0282C28.7991 35.1184 28.7265 35.2258 28.6769 35.3443C28.6274 35.4627 28.6019 35.5899 28.6019 35.7183V37.3425H26.3362C26.0792 37.3425 25.8327 37.4446 25.651 37.6263C25.4693 37.808 25.3672 38.0545 25.3672 38.3115C25.3672 38.5685 25.4693 38.815 25.651 38.9967C25.8327 39.1785 26.0792 39.2806 26.3362 39.2806H38.0467C38.3037 39.2806 38.5502 39.1785 38.7319 38.9967C38.9136 38.815 39.0157 38.5685 39.0157 38.3115C39.0157 38.0545 38.9136 37.808 38.7319 37.6263C38.5502 37.4446 38.3037 37.3425 38.0467 37.3425ZM33.8293 37.3425H30.5536V36.6873H33.8293V37.3425Z" fill="#FF4E4E"/>
<path d="M36.7504 39.7856C36.4934 39.7856 36.2469 39.8877 36.0652 40.0694C35.8835 40.2512 35.7814 40.4976 35.7814 40.7546V49.0803H28.6568V40.7546C28.6568 40.4976 28.5547 40.2512 28.373 40.0694C28.1913 39.8877 27.9448 39.7856 27.6878 39.7856C27.4308 39.7856 27.1843 39.8877 27.0026 40.0694C26.8208 40.2512 26.7188 40.4976 26.7188 40.7546V49.0393C26.7188 49.5678 26.9287 50.0747 27.3024 50.4484C27.6761 50.8221 28.1829 51.032 28.7114 51.032H35.7814C36.3099 51.032 36.8167 50.8221 37.1904 50.4484C37.5641 50.0747 37.7741 49.5678 37.7741 49.0393V40.7546C37.7743 40.6227 37.7475 40.492 37.6955 40.3707C37.6434 40.2495 37.5671 40.1401 37.4712 40.0494C37.3754 39.9586 37.262 39.8884 37.1381 39.8431C37.0141 39.7977 36.8822 39.7782 36.7504 39.7856Z" fill="#FF4E4E"/>
<path d="M34.4986 47.5106V42.87C34.4986 42.613 34.3965 42.3666 34.2148 42.1848C34.0331 42.0031 33.7866 41.901 33.5296 41.901C33.2726 41.901 33.0261 42.0031 32.8444 42.1848C32.6626 42.3666 32.5605 42.613 32.5605 42.87V47.5106C32.5605 47.7676 32.6626 48.014 32.8444 48.1958C33.0261 48.3775 33.2726 48.4796 33.5296 48.4796C33.7866 48.4796 34.0331 48.3775 34.2148 48.1958C34.3965 48.014 34.4986 47.7676 34.4986 47.5106Z" fill="#FF4E4E"/>
</svg>
