<svg width="12" height="14" viewBox="0 0 12 14" fill="none" xmlns="http://www.w3.org/2000/svg">
<path d="M7.33366 0.333374H2.00033C1.6467 0.333374 1.30756 0.47385 1.05752 0.723898C0.807468 0.973947 0.666992 1.31309 0.666992 1.66671V12.3334C0.666992 12.687 0.807468 13.0261 1.05752 13.2762C1.30756 13.5262 1.6467 13.6667 2.00033 13.6667H10.0003C10.3539 13.6667 10.6931 13.5262 10.9431 13.2762C11.1932 13.0261 11.3337 12.687 11.3337 12.3334V4.33337L7.33366 0.333374ZM2.00033 1.66671H6.66699L10.0003 5.00004V10.72L8.77366 9.49337C9.62699 8.20004 9.48699 6.44671 8.33366 5.30671C7.70033 4.66671 6.85366 4.33337 6.00033 4.33337C5.14699 4.33337 4.30033 4.66671 3.64699 5.30671C2.33366 6.60671 2.33366 8.71337 3.64699 10C4.29366 10.6667 5.14699 10.98 6.00033 10.98C6.64033 10.98 7.28032 10.7934 7.83366 10.4267L9.73366 12.3334H2.00033V1.66671ZM7.40699 9.06671C7.03366 9.44004 6.53366 9.66671 6.00033 9.66671C5.46699 9.66671 4.96699 9.44671 4.59366 9.06671C4.22033 8.69337 4.00033 8.19337 4.00033 7.66671C4.00033 7.12671 4.21366 6.62671 4.59366 6.25337C4.96699 5.87337 5.46699 5.66671 6.00033 5.66671C6.53366 5.66671 7.03366 5.87337 7.40699 6.25337C7.78032 6.62671 8.00033 7.12671 8.00033 7.66671C8.00033 8.19337 7.78699 8.69337 7.40699 9.06671Z" fill="#5B5B5B"/>
</svg>
