<svg width="18" height="18" viewBox="0 0 18 18" fill="none" xmlns="http://www.w3.org/2000/svg">
<path d="M16.8337 8.66667L9.33366 1.16666C9.00033 0.833331 8.58366 0.666664 8.16699 0.666664H2.33366C1.41699 0.666664 0.666992 1.41666 0.666992 2.33333V8.16666C0.666992 8.58333 0.833659 9 1.16699 9.33333L8.66699 16.8333C9.00033 17.1667 9.41699 17.3333 9.83366 17.3333C10.2503 17.3333 10.667 17.1667 11.0003 16.8333L16.8337 11C17.167 10.6667 17.3337 10.25 17.3337 9.83333C17.3337 9.41666 17.167 9 16.8337 8.66667ZM9.83366 15.6667L2.33366 8.16666V2.33333H8.16699L15.667 9.83333L9.83366 15.6667ZM4.41699 3.16666C5.08366 3.16666 5.66699 3.75 5.66699 4.41666C5.66699 5.08333 5.08366 5.66666 4.41699 5.66666C3.75033 5.66666 3.16699 5.08333 3.16699 4.41666C3.16699 3.75 3.75033 3.16666 4.41699 3.16666ZM7.41699 6.41666L8.58366 5.25L13.167 9.83333L12.0003 11L7.41699 6.41666ZM5.33366 8.5L6.50033 7.33333L9.83366 10.6667L8.66699 11.8333L5.33366 8.5Z" fill="white"/>
</svg>
