<svg width="16" height="17" viewBox="0 0 16 17" fill="none" xmlns="http://www.w3.org/2000/svg">
<path d="M13.8333 2.00001H10.35C10 1.03334 9.08333 0.333344 8 0.333344C6.91667 0.333344 6 1.03334 5.65 2.00001H2.16667C1.25 2.00001 0.5 2.75001 0.5 3.66668V15.3333C0.5 16.25 1.25 17 2.16667 17H13.8333C14.75 17 15.5 16.25 15.5 15.3333V3.66668C15.5 2.75001 14.75 2.00001 13.8333 2.00001ZM8 2.00001C8.45833 2.00001 8.83333 2.37501 8.83333 2.83334C8.83333 3.29168 8.45833 3.66668 8 3.66668C7.54167 3.66668 7.16667 3.29168 7.16667 2.83334C7.16667 2.37501 7.54167 2.00001 8 2.00001ZM3.83333 5.33334H12.1667V3.66668H13.8333V15.3333H2.16667V3.66668H3.83333V5.33334ZM8 13.6667V12H12.1667V13.6667H8ZM8 8.66668V7.00001H12.1667V8.66668H8ZM4.66667 9.50001V7.00001H3.83333V6.16668H5.5V9.50001H4.66667ZM5.70833 11.1667C6.05 11.1667 6.33333 11.45 6.33333 11.7917C6.33333 11.9583 6.26667 12.1167 6.15833 12.225L4.76667 13.6667H6.33333V14.5H3.83333V13.7333L5.5 12H3.83333V11.1667H5.70833Z" fill="#3D8A94"/>
</svg>
