<svg width="41" height="37" viewBox="0 0 41 37" fill="none" xmlns="http://www.w3.org/2000/svg">
<path d="M39.79 24.8567L38.17 24.6467C38.08 24.3967 37.97 24.1467 37.83 23.8467L38.82 22.5767C39.08 22.2467 39.06 21.7767 38.76 21.4867L36.76 19.4867C36.6 19.3367 36.4 19.2467 36.18 19.2467C35.99 19.2467 35.81 19.3167 35.67 19.4267L34.4 20.4267C34.11 20.2867 33.85 20.1667 33.6 20.0867L33.4 18.4667C33.35 18.0767 33.03 17.7767 32.63 17.7567H29.79C29.74 17.7567 29.69 17.7567 29.64 17.7567H29.62C29.27 17.8267 29 18.1167 28.96 18.4667L28.75 20.0867C28.5 20.1767 28.24 20.2867 27.95 20.4267L26.68 19.4367C26.53 19.3167 26.35 19.2567 26.16 19.2567C25.94 19.2567 25.74 19.3367 25.58 19.4967L23.58 21.4967C23.28 21.7967 23.26 22.2667 23.52 22.5867L24.52 23.8567C24.37 24.1467 24.26 24.4067 24.18 24.6567L22.56 24.8667C22.15 24.9267 21.85 25.2767 21.85 25.6867V28.5267C21.87 28.9167 22.17 29.2367 22.56 29.2967L24.18 29.5067C24.27 29.7567 24.38 30.0067 24.52 30.3067L23.53 31.5767C23.27 31.9067 23.29 32.3767 23.59 32.6667L25.59 34.6667C25.74 34.8167 25.95 34.9067 26.17 34.9067C26.36 34.9067 26.54 34.8367 26.68 34.7267L27.95 33.7267C28.24 33.8767 28.5 33.9867 28.75 34.0667L28.96 35.6867C29.01 36.0967 29.36 36.3967 29.77 36.3967H32.62C33.01 36.3767 33.33 36.0767 33.39 35.6867L33.6 34.0667C33.85 33.9767 34.11 33.8667 34.4 33.7267L35.67 34.7167C35.82 34.8367 36 34.8967 36.19 34.8967C36.41 34.8967 36.61 34.8167 36.77 34.6567L38.77 32.6567C39.06 32.3567 39.09 31.8867 38.83 31.5667L37.83 30.2967C37.98 30.0067 38.09 29.7467 38.17 29.4967L39.79 29.2867C40.18 29.2367 40.48 28.9167 40.5 28.5167V25.6667C40.5 25.2667 40.2 24.9167 39.79 24.8567ZM38.8 27.7567L37.47 27.9167C37.13 27.9467 36.86 28.1967 36.77 28.5167C36.63 29.0367 36.44 29.5367 36.16 29.9967C35.98 30.2867 36.01 30.6567 36.22 30.9267L37.1 31.9967L36.1 32.9967L35.03 32.1167C34.89 32.0067 34.71 31.9467 34.53 31.9467C34.38 31.9467 34.23 31.9867 34.11 32.0667C33.65 32.3367 33.15 32.5467 32.62 32.6867C32.29 32.7767 32.05 33.0567 32.02 33.3867L31.86 34.7367H30.5L30.34 33.3867C30.31 33.0467 30.06 32.7667 29.74 32.6767C29.22 32.5467 28.72 32.3367 28.26 32.0667C27.98 31.8967 27.6 31.9167 27.33 32.1267L26.26 33.0067L25.26 32.0067L26.14 30.9367C26.35 30.6667 26.37 30.2967 26.2 30.0067C25.93 29.5467 25.72 29.0467 25.58 28.5167C25.49 28.1867 25.21 27.9467 24.88 27.9167L23.52 27.7567V26.3967L24.87 26.2367C25.21 26.2067 25.49 25.9567 25.58 25.6367C25.71 25.1167 25.92 24.6167 26.19 24.1567C26.36 23.8667 26.34 23.4967 26.13 23.2267L25.26 22.1567L26.25 21.1867L27.32 22.0367C27.46 22.1467 27.64 22.2067 27.82 22.2067C27.97 22.2067 28.12 22.1667 28.24 22.0867C28.7 21.8167 29.2 21.6067 29.73 21.4667C30.06 21.3767 30.3 21.1167 30.33 20.7867L30.5 19.4467H31.86L32.02 20.7767C32.05 21.1167 32.29 21.3867 32.62 21.4767C33.14 21.6067 33.64 21.8067 34.1 22.0867C34.38 22.2567 34.77 22.2367 35.03 22.0267L36.1 21.1767L37.1 22.1467L36.22 23.2167C36.01 23.4867 35.99 23.8567 36.16 24.1467C36.43 24.6067 36.64 25.1067 36.78 25.6367C36.87 25.9667 37.13 26.2067 37.46 26.2367L38.79 26.3967V27.7567H38.8Z" fill="#646E70"/>
<path d="M31.18 22.9167C28.89 22.9167 27.02 24.7867 27.02 27.0767C27.02 29.3667 28.88 31.2367 31.18 31.2367C33.47 31.2367 35.34 29.3667 35.34 27.0767C35.34 24.7767 33.47 22.9167 31.18 22.9167ZM33.12 29.0067C32.61 29.5267 31.92 29.8067 31.19 29.8067C29.68 29.8067 28.46 28.5767 28.46 27.0767C28.46 25.5667 29.69 24.3467 31.19 24.3467C31.92 24.3467 32.61 24.6267 33.12 25.1467C33.64 25.6667 33.92 26.3467 33.92 27.0767C33.91 27.8067 33.63 28.4967 33.12 29.0067Z" fill="#646E70"/>
<path d="M2.34 30.2367V8.96666C2.34 8.14666 3.01 7.47666 3.83 7.47666H33.8C34.62 7.47666 35.3 8.14666 35.3 8.96666V16.8667H37.14V8.96666C37.14 7.07666 35.69 5.63666 33.8 5.63666H26.1V2.19666C26.1 1.37666 25.45 0.666664 24.62 0.666664H13.02C12.2 0.666664 11.55 1.37666 11.55 2.19666V5.63666H3.83C1.95 5.63666 0.5 7.08666 0.5 8.96666V30.2367C0.5 32.1267 1.95 33.6267 3.83 33.6267H21.12V31.5967H3.83C3.01 31.6067 2.34 31.0667 2.34 30.2367ZM13.57 2.69666H24.07V5.64666H13.57V2.69666Z" fill="#646E70"/>
</svg>
