<svg width="18" height="18" viewBox="0 0 18 18" fill="none" xmlns="http://www.w3.org/2000/svg">
<path d="M13.917 13.4917C13.7003 12.825 13.0753 12.3333 12.3337 12.3333H11.5003V9.83333C11.5003 9.61232 11.4125 9.40036 11.2562 9.24408C11.1 9.0878 10.888 9 10.667 9H5.66699V7.33333H7.33366C7.55467 7.33333 7.76663 7.24553 7.92291 7.08925C8.0792 6.93297 8.16699 6.72101 8.16699 6.5V4.83333H9.83366C10.2757 4.83333 10.6996 4.65774 11.0122 4.34518C11.3247 4.03261 11.5003 3.60869 11.5003 3.16666V2.825C13.942 3.80833 15.667 6.2 15.667 9C15.667 10.7333 15.0003 12.3083 13.917 13.4917ZM8.16699 15.6083C4.87533 15.2 2.33366 12.4 2.33366 9C2.33366 8.48333 2.40033 7.98333 2.50866 7.50833L6.50033 11.5V12.3333C6.50033 12.7754 6.67592 13.1993 6.98848 13.5118C7.30104 13.8244 7.72497 14 8.16699 14V15.6083ZM9.00033 0.666664C7.90598 0.666664 6.82234 0.882212 5.8113 1.301C4.80025 1.71979 3.88159 2.33362 3.10777 3.10744C1.54497 4.67024 0.666992 6.78986 0.666992 9C0.666992 11.2101 1.54497 13.3298 3.10777 14.8926C3.88159 15.6664 4.80025 16.2802 5.8113 16.699C6.82234 17.1178 7.90598 17.3333 9.00033 17.3333C11.2105 17.3333 13.3301 16.4554 14.8929 14.8926C16.4557 13.3298 17.3337 11.2101 17.3337 9C17.3337 7.90565 17.1181 6.82202 16.6993 5.81097C16.2805 4.79992 15.6667 3.88126 14.8929 3.10744C14.1191 2.33362 13.2004 1.71979 12.1894 1.301C11.1783 0.882212 10.0947 0.666664 9.00033 0.666664Z" fill="white"/>
</svg>
