<svg width="12" height="14" viewBox="0 0 12 14" fill="none" xmlns="http://www.w3.org/2000/svg">
<path d="M10.6667 1.99996C11.0203 1.99996 11.3594 2.14043 11.6095 2.39048C11.8595 2.64053 12 2.97967 12 3.33329V12.6666C12 13.0202 11.8595 13.3594 11.6095 13.6094C11.3594 13.8595 11.0203 14 10.6667 14H1.33333C0.979711 14 0.640573 13.8595 0.390524 13.6094C0.140476 13.3594 0 13.0202 0 12.6666V3.33329C0 2.97967 0.140476 2.64053 0.390524 2.39048C0.640573 2.14043 0.979711 1.99996 1.33333 1.99996H4.12C4.4 1.22663 5.13333 0.666626 6 0.666626C6.86667 0.666626 7.6 1.22663 7.88 1.99996H10.6667ZM6 1.99996C5.82319 1.99996 5.65362 2.0702 5.5286 2.19522C5.40357 2.32025 5.33333 2.48981 5.33333 2.66663C5.33333 2.84344 5.40357 3.01301 5.5286 3.13803C5.65362 3.26305 5.82319 3.33329 6 3.33329C6.17681 3.33329 6.34638 3.26305 6.4714 3.13803C6.59643 3.01301 6.66667 2.84344 6.66667 2.66663C6.66667 2.48981 6.59643 2.32025 6.4714 2.19522C6.34638 2.0702 6.17681 1.99996 6 1.99996ZM2.66667 4.66663V3.33329H1.33333V12.6666H10.6667V3.33329H9.33333V4.66663H2.66667ZM2.66667 8.66663L6 12V9.99996H8.66667V7.33329H6V5.33329L2.66667 8.66663Z" fill="#5B5B5B"/>
</svg>
