<svg width="35" height="39" viewBox="0 0 35 39" fill="none" xmlns="http://www.w3.org/2000/svg">
<path d="M19.7943 18.9696H7.52547V20.7264H19.7943V18.9696Z" fill="#646E70"/>
<path d="M19.9185 20.8416H7.40975V18.8544H19.9185V20.8416ZM7.64975 20.6016H19.6785V19.0848H7.64975V20.6016Z" fill="#646E70"/>
<path d="M14.5335 13.2672H7.52547V15.024H14.5335V13.2672Z" fill="#646E70"/>
<path d="M14.6577 15.1392H7.40975V13.152H14.6577V15.1392ZM7.64975 14.8992H14.4273V13.3824H7.64975V14.8992Z" fill="#646E70"/>
<path d="M24.9298 30.4896L22.9522 28.4736L21.685 29.7024L24.8818 32.9856L29.9218 28.2144L28.693 26.9376L24.9298 30.4896Z" fill="#646E70"/>
<path d="M24.8814 33.1584L24.795 33.072L21.5118 29.7024L22.9518 28.3104L23.0382 28.3968L24.9294 30.3264L28.7022 26.7744L30.0942 28.2144L24.8814 33.1584ZM21.8478 29.7024L24.8814 32.8224L29.7486 28.2048L28.683 27.1008L24.9102 30.6528L22.9422 28.6368L21.8478 29.7024Z" fill="#646E70"/>
<path d="M33.9818 27.5328C33.0506 24.2304 30.2186 21.8208 26.8106 21.4176V8.1792L18.1802 0.1152H0.948161V32.112H17.6906C18.9578 36.6048 23.6234 39.2256 28.1258 37.9584C32.6282 36.7008 35.249 32.0256 33.9818 27.5328ZM18.4874 2.832L24.0554 8.0064H18.4874V2.832ZM17.345 29.7888C17.3354 29.9808 17.3546 30.1728 17.393 30.3552H2.70496V1.872H16.7306V9.7632H25.0538V21.3792C22.6922 21.5904 20.5322 22.7808 19.0922 24.6624H7.52416V26.4192H18.0458C17.5946 27.4848 17.3546 28.6272 17.345 29.7888ZM25.8026 36.4992C22.097 36.4992 19.1018 33.4944 19.1018 29.7984C19.1018 26.0928 22.1066 23.088 25.8026 23.088C29.5082 23.088 32.513 26.0928 32.513 29.7984C32.4842 33.4848 29.4986 36.4704 25.8026 36.4992Z" fill="#646E70"/>
<path d="M25.8413 38.4C22.1261 38.4 18.6989 35.9616 17.6045 32.2272H0.833252V0H18.2285L26.9357 8.1312V21.312C30.3629 21.7536 33.1661 24.1632 34.0973 27.4944C34.7213 29.7024 34.4429 32.016 33.3197 34.0128C32.1965 36.0096 30.3629 37.4496 28.1645 38.0736C27.3869 38.2944 26.6093 38.4 25.8413 38.4ZM1.07325 31.9968H17.7869L17.8157 32.0832C19.0637 36.5088 23.6813 39.1008 28.1069 37.8528C30.2477 37.248 32.0333 35.8464 33.1181 33.9072C34.2125 31.968 34.4717 29.712 33.8765 27.5712C32.9549 24.2976 30.1805 21.936 26.8109 21.5424L26.7053 21.5328V8.2368L18.1421 0.24H1.07325V31.9968ZM25.8029 36.6144C22.0397 36.6144 18.9773 33.552 18.9773 29.7888C18.9773 26.0256 22.0397 22.9632 25.8029 22.9632C29.5661 22.9632 32.6285 26.0256 32.6285 29.7888C32.5997 33.5328 29.5469 36.5952 25.8029 36.6144ZM25.8029 23.2032C22.1741 23.2032 19.2173 26.16 19.2173 29.7888C19.2173 33.4176 22.1741 36.3744 25.8029 36.3744C29.4125 36.3552 32.3693 33.3984 32.3885 29.7888C32.3885 26.16 29.4317 23.2032 25.8029 23.2032ZM17.5373 30.48H2.59005V1.7568H16.8557V9.648H25.1789V21.4944L25.0733 21.504C22.7501 21.7152 20.6093 22.896 19.1981 24.7488L19.1597 24.7968H7.64925V26.3136H18.2285L18.1613 26.4768C17.7101 27.5328 17.4797 28.656 17.4701 29.808C17.4605 29.9904 17.4797 30.1728 17.5085 30.3552L17.5373 30.48ZM2.83005 30.24H17.2493C17.2301 30.0864 17.2205 29.9328 17.2301 29.7888C17.2397 28.6656 17.4509 27.5712 17.8733 26.5344H7.40925V24.5472H19.0445C20.4749 22.704 22.6157 21.5136 24.9485 21.2736V9.8784H16.6253V1.9872H2.83005V30.24ZM24.3533 8.1312H18.3629V2.5632L24.3533 8.1312ZM18.6029 7.8912H23.7485L18.6029 3.1104V7.8912Z" fill="#646E70"/>
</svg>
