<svg width="19" height="16" viewBox="0 0 19 16" fill="none" xmlns="http://www.w3.org/2000/svg">
<path d="M7.33268 0.833252C6.44863 0.833252 5.60078 1.18444 4.97566 1.80956C4.35054 2.43468 3.99935 3.28253 3.99935 4.16659C3.99935 5.05064 4.35054 5.89849 4.97566 6.52361C5.60078 7.14873 6.44863 7.49992 7.33268 7.49992C8.21674 7.49992 9.06458 7.14873 9.68971 6.52361C10.3148 5.89849 10.666 5.05064 10.666 4.16659C10.666 3.28253 10.3148 2.43468 9.68971 1.80956C9.06458 1.18444 8.21674 0.833252 7.33268 0.833252ZM7.33268 2.49992C7.77471 2.49992 8.19863 2.67551 8.51119 2.98807C8.82375 3.30063 8.99935 3.72456 8.99935 4.16659C8.99935 4.60861 8.82375 5.03254 8.51119 5.3451C8.19863 5.65766 7.77471 5.83325 7.33268 5.83325C6.89066 5.83325 6.46673 5.65766 6.15417 5.3451C5.84161 5.03254 5.66602 4.60861 5.66602 4.16659C5.66602 3.72456 5.84161 3.30063 6.15417 2.98807C6.46673 2.67551 6.89066 2.49992 7.33268 2.49992ZM13.166 7.49992C13.0327 7.49992 12.966 7.56659 12.966 7.69992L12.7493 8.74992C12.566 8.89992 12.2993 9.03325 12.0993 9.16658L11.0327 8.74992C10.966 8.74992 10.8327 8.74992 10.766 8.83325L9.96602 10.2999C9.89935 10.3666 9.89935 10.4999 10.0327 10.5666L10.8993 11.2499V12.0833L10.0327 12.7666C9.96602 12.8333 9.89935 12.9666 9.96602 13.0333L10.766 14.4999C10.8327 14.5833 10.966 14.5833 11.0327 14.5833L12.0993 14.1666C12.2993 14.2999 12.566 14.4333 12.7493 14.5833L12.966 15.6333C12.966 15.7666 13.0327 15.8333 13.166 15.8333H14.8327C14.8993 15.8333 15.0327 15.7666 15.0327 15.6333L15.166 14.5833C15.4327 14.4333 15.6994 14.2999 15.8994 14.1666L16.916 14.5833C17.0327 14.5833 17.166 14.5833 17.166 14.4999L18.0327 13.0333C18.0993 12.9666 18.0327 12.8333 17.966 12.7666L17.0993 12.0833V11.2499L17.966 10.5666C18.0327 10.4999 18.0993 10.3666 18.0327 10.2999L17.166 8.83325C17.166 8.74992 17.0327 8.74992 16.916 8.74992L15.8994 9.16658C15.6994 9.03325 15.4327 8.89992 15.166 8.74992L15.0327 7.69992C15.0327 7.56659 14.8993 7.49992 14.8327 7.49992H13.166ZM7.33268 8.33325C5.10768 8.33325 0.666016 9.44158 0.666016 11.6666V14.1666H8.72435C8.49102 13.6749 8.32435 13.1416 8.24102 12.5833H2.24935V11.6666C2.24935 11.1333 4.85768 9.91658 7.33268 9.91658C7.69102 9.91658 8.05768 9.94992 8.41602 9.99992C8.58268 9.46659 8.80768 8.96659 9.09935 8.50825C8.44935 8.39992 7.83268 8.33325 7.33268 8.33325ZM14.0327 10.4166C14.6994 10.4166 15.2493 10.9666 15.2493 11.6999C15.2493 12.3666 14.6994 12.9166 14.0327 12.9166C13.2994 12.9166 12.7493 12.3666 12.7493 11.6999C12.7493 10.9666 13.2994 10.4166 14.0327 10.4166Z" fill="#3D8A94"/>
</svg>
