<svg width="14" height="14" viewBox="0 0 14 14" fill="none" xmlns="http://www.w3.org/2000/svg">
<path d="M13.7197 6.35998H12.3863V1.66665H7.69967V0.333313H6.35967V1.66665H1.66634V6.35998H0.333008V7.69998H1.66634V12.3866H6.35967V13.72H7.69967V12.3866H12.3863V7.69998H13.7197V6.35998ZM11.0463 11.0466H7.69967V9.70665H6.35967V11.0466H2.99967V7.69998H4.35301V6.35998H2.99967V2.99998H6.35967V4.35331H7.69967V2.99998H11.0463V6.35998H9.70634V7.69998H11.0463V11.0466ZM7.69967 7.03331C7.69967 7.21012 7.62944 7.37969 7.50441 7.50472C7.37939 7.62974 7.20982 7.69998 7.03301 7.69998C6.66634 7.69998 6.35967 7.39998 6.35967 7.03331C6.35967 6.66665 6.66634 6.35998 7.03301 6.35998C7.39967 6.35998 7.69967 6.66665 7.69967 7.03331Z" fill="#5B5B5B"/>
</svg>
