<svg width="41" height="39" viewBox="0 0 41 39" fill="none" xmlns="http://www.w3.org/2000/svg">
<path d="M39.6902 33.9745L33.9516 28.236C36.481 24.007 35.8012 18.4984 32.2721 15.0293C31.3123 14.0695 30.0826 13.2497 28.7029 12.6498V2.23245C28.7029 0.992762 27.7332 0.0230046 26.4935 0.0230046C21.1048 0.0230046 17.3958 0.0130071 14.8364 0.00300963C9.00787 -0.00698787 9.01787 -0.00698787 8.71795 0.252947L3.76918 5.18171C0.809922 8.13098 0.609973 8.34093 0.57998 8.54088C0.509997 8.67084 0.5 8.81081 0.5 8.8508V36.3139C0.5 37.5536 1.46976 38.5234 2.70945 38.5234H26.4935C27.7332 38.5234 28.7029 37.5536 28.7029 36.3139V32.7648C29.2128 32.5649 29.6827 32.3249 30.1226 32.065L35.8612 37.8036C36.391 38.3334 37.0809 38.5934 37.7807 38.5934C38.4705 38.5934 39.1703 38.3334 39.7002 37.8036C40.2101 37.2937 40.5 36.6039 40.5 35.884C40.49 35.1742 40.2101 34.4944 39.6902 33.9745ZM32.7719 29.7556L38.2906 35.2742C38.5905 35.6141 38.6005 36.074 38.3106 36.3639C38.0206 36.6538 37.5607 36.6438 37.2408 36.3639L31.7022 30.8253C32.0921 30.4954 32.442 30.1455 32.7719 29.7556ZM24.594 18.2385C25.6737 18.2385 26.5535 19.1182 26.5535 20.198C26.5535 21.2577 25.6837 22.1575 24.654 22.1575C23.5242 22.1575 22.6345 21.2977 22.6345 20.198C22.6345 19.1182 23.5142 18.2385 24.594 18.2385ZM26.7434 12.01C23.1543 11.2802 19.5152 12.3699 16.9159 14.9693C13.7667 18.1185 12.8769 22.6673 14.6065 26.8363C16.326 30.9853 20.1551 33.5546 24.604 33.5546C25.2838 33.5546 26.0036 33.4846 26.7534 33.3347V36.3139C26.7534 36.4739 26.6735 36.5639 26.5035 36.5639H2.70945C2.54949 36.5639 2.45951 36.4839 2.45951 36.3139V9.84055H9.32779C9.89765 9.84055 10.3075 9.43065 10.3075 8.8608V1.99251H26.4935C26.6535 1.99251 26.7434 2.07249 26.7434 2.24245V12.01ZM20.615 25.9765C21.5847 24.7968 23.0144 24.127 24.594 24.127C26.1036 24.127 27.5332 24.8068 28.503 25.9965C29.4428 27.1362 29.8327 28.5959 29.5927 30.0455C26.6635 32.075 22.6145 32.105 19.5352 30.0455C19.2953 28.5559 19.6752 27.1162 20.615 25.9765ZM28.523 20.198C28.523 18.0385 26.7634 16.2689 24.594 16.2689C22.4345 16.2689 20.675 18.0285 20.675 20.198C20.675 21.1877 21.0249 22.0975 21.6547 22.7773C19.4653 23.7871 17.9656 25.8166 17.6157 28.196C14.8164 24.6968 15.0564 19.6481 18.2956 16.3489C19.9751 14.6693 22.2146 13.7396 24.594 13.7396C26.9734 13.7396 29.2128 14.6693 30.8924 16.3389C34.1316 19.6381 34.3715 24.6868 31.5722 28.186C31.2223 25.8266 29.6827 23.7571 27.5232 22.7573C28.1631 22.0475 28.523 21.1377 28.523 20.198ZM3.83917 7.87104L8.34804 3.36217V7.87104H3.83917Z" fill="#646E70"/>
<path d="M13.3168 15.5391H5.95865C5.38879 15.5391 4.97889 15.949 4.97889 16.5189C4.97889 17.0887 5.38879 17.4986 5.95865 17.4986H13.3168C13.8867 17.4986 14.2966 17.0887 14.2966 16.5189C14.2966 15.979 13.8567 15.5391 13.3168 15.5391Z" fill="#646E70"/>
<path d="M5.95865 23.0173H10.6775C11.2473 23.0173 11.6572 22.6074 11.6572 22.0375C11.6572 21.4676 11.2473 21.0577 10.6775 21.0577H5.95865C5.38879 21.0577 4.97889 21.4676 4.97889 22.0375C4.97889 22.6074 5.38879 23.0173 5.95865 23.0173Z" fill="#646E70"/>
<path d="M5.95865 28.5959H10.6775C11.2473 28.5959 11.6572 28.186 11.6572 27.6161C11.6572 27.0462 11.2473 26.6363 10.6775 26.6363H5.95865C5.38879 26.6363 4.97889 27.0462 4.97889 27.6161C4.97889 28.186 5.38879 28.5959 5.95865 28.5959Z" fill="#646E70"/>
<path d="M5.95865 32.215C5.38879 32.215 4.97889 32.6249 4.97889 33.1947C4.97889 33.7646 5.38879 34.1745 5.95865 34.1745H13.3168C13.8867 34.1745 14.2966 33.7646 14.2966 33.1947C14.2966 32.6549 13.8567 32.215 13.3168 32.215H5.95865Z" fill="#646E70"/>
</svg>
