<svg width="18" height="14" viewBox="0 0 18 14" fill="none" xmlns="http://www.w3.org/2000/svg">
<path d="M15.667 7V2.83334H17.3337V7.83333H15.667V7ZM15.667 11.1667H17.3337V9.5H15.667V11.1667ZM7.33366 7.83333C9.55866 7.83333 14.0003 8.95 14.0003 11.1667V13.6667H0.666992V11.1667C0.666992 8.95 5.10866 7.83333 7.33366 7.83333ZM7.33366 0.333336C8.21771 0.333336 9.06556 0.684525 9.69068 1.30965C10.3158 1.93477 10.667 2.78261 10.667 3.66667C10.667 4.55072 10.3158 5.39857 9.69068 6.02369C9.06556 6.64881 8.21771 7 7.33366 7C6.4496 7 5.60176 6.64881 4.97664 6.02369C4.35152 5.39857 4.00033 4.55072 4.00033 3.66667C4.00033 2.78261 4.35152 1.93477 4.97664 1.30965C5.60176 0.684525 6.4496 0.333336 7.33366 0.333336ZM7.33366 9.41667C4.85866 9.41667 2.25033 10.6333 2.25033 11.1667V12.0833H12.417V11.1667C12.417 10.6333 9.80866 9.41667 7.33366 9.41667ZM7.33366 1.91667C6.86953 1.91667 6.42441 2.10104 6.09622 2.42923C5.76803 2.75742 5.58366 3.20254 5.58366 3.66667C5.58366 4.1308 5.76803 4.57592 6.09622 4.90411C6.42441 5.23229 6.86953 5.41667 7.33366 5.41667C7.79779 5.41667 8.24291 5.23229 8.5711 4.90411C8.89929 4.57592 9.08366 4.1308 9.08366 3.66667C9.08366 3.20254 8.89929 2.75742 8.5711 2.42923C8.24291 2.10104 7.79779 1.91667 7.33366 1.91667Z" fill="white"/>
</svg>
