<svg width="12" height="12" viewBox="0 0 12 12" fill="none" xmlns="http://www.w3.org/2000/svg">
<path d="M10.6667 10.6667V1.33333H1.33333V10.6667H10.6667ZM10.6667 0C11.0203 0 11.3594 0.140476 11.6095 0.390524C11.8595 0.640573 12 0.979711 12 1.33333V10.6667C12 11.0203 11.8595 11.3594 11.6095 11.6095C11.3594 11.8595 11.0203 12 10.6667 12H1.33333C0.979711 12 0.640573 11.8595 0.390524 11.6095C0.140476 11.3594 0 11.0203 0 10.6667V1.33333C0 0.979711 0.140476 0.640573 0.390524 0.390524C0.640573 0.140476 0.979711 0 1.33333 0H10.6667ZM5.33333 2.66667H6.66667C7.02029 2.66667 7.35943 2.80714 7.60948 3.05719C7.85952 3.30724 8 3.64638 8 4V8C8 8.35362 7.85952 8.69276 7.60948 8.94281C7.35943 9.19286 7.02029 9.33333 6.66667 9.33333H5.33333C4.97971 9.33333 4.64057 9.19286 4.39052 8.94281C4.14048 8.69276 4 8.35362 4 8V4C4 3.64638 4.14048 3.30724 4.39052 3.05719C4.64057 2.80714 4.97971 2.66667 5.33333 2.66667ZM5.33333 4V8H6.66667V4H5.33333Z" fill="#5B5B5B"/>
</svg>
